<?xml version="1.0" encoding="UTF-8" standalone="no"?>
<!-- Created with Inkscape (http://www.inkscape.org/) -->

<svg
   width="200mm"
   height="200mm"
   viewBox="0 0 200 200"
   version="1.1"
   id="svg5"
   inkscape:version="1.1.1 (3bf5ae0d25, 2021-09-20)"
   sodipodi:docname="ico_hoverHelp.svg"
   xmlns:inkscape="http://www.inkscape.org/namespaces/inkscape"
   xmlns:sodipodi="http://sodipodi.sourceforge.net/DTD/sodipodi-0.dtd"
   xmlns="http://www.w3.org/2000/svg"
   xmlns:svg="http://www.w3.org/2000/svg">
  <sodipodi:namedview
     id="namedview7"
     pagecolor="#ffffff"
     bordercolor="#666666"
     borderopacity="1.0"
     inkscape:pageshadow="2"
     inkscape:pageopacity="0.0"
     inkscape:pagecheckerboard="0"
     inkscape:document-units="mm"
     showgrid="false"
     width="200mm"
     inkscape:zoom="0.41890224"
     inkscape:cx="171.87781"
     inkscape:cy="299.59257"
     inkscape:window-width="1600"
     inkscape:window-height="852"
     inkscape:window-x="0"
     inkscape:window-y="0"
     inkscape:window-maximized="1"
     inkscape:current-layer="layer1" />
  <defs
     id="defs2">
    <rect
       x="206.49244"
       y="221.23612"
       width="281.58195"
       height="237.02443"
       id="rect41120" />
  </defs>
  <g
     inkscape:label="Layer 1"
     inkscape:groupmode="layer"
     id="layer1">
    <circle
       style="fill:#002db5;fill-opacity:1;stroke-width:3.46501;stroke-linecap:round"
       id="circle2850"
       cx="100"
       cy="100"
       r="100" />
    <ellipse
       style="fill:none;fill-opacity:1;stroke:#c6c6c6;stroke-width:16.79;stroke-linecap:round;stroke-miterlimit:4;stroke-dasharray:none;stroke-opacity:1"
       id="path846"
       cx="100"
       cy="100"
       rx="79.664902"
       ry="79.664879" />
    <g
       aria-label="?"
       transform="matrix(3.9761598,0,0,3.9761598,-757.54717,-868.68394)"
       id="text41118"
       style="font-size:40px;line-height:1.25;font-family:'Fira Sans';-inkscape-font-specification:'Fira Sans';white-space:pre;shape-inside:url(#rect41120)">
      <path
         d="m 216.01219,229.36299 q 2.4,0 4.12,0.88 1.76,0.84 2.64,2.28 0.88,1.44 0.88,3.08 0,1.56 -0.56,2.68 -0.52,1.08 -1.28,1.76 -0.76,0.68 -2.04,1.6 -1.68,1.16 -2.52,2.16 -0.84,0.96 -0.84,2.6 v 1.8 h -3.64 v -2 q 0,-1.72 0.56,-2.92 0.6,-1.2 1.4,-1.92 0.8,-0.72 2.12,-1.64 1.52,-1 2.24,-1.8 0.72,-0.8 0.72,-2.08 0,-1.64 -1.08,-2.52 -1.08,-0.92 -2.96,-0.92 -3.2,0 -5.56,2.88 l -2.52,-1.96 q 3.36,-3.96 8.32,-3.96 z m -1.32,22.96 q 1.2,0 2,0.8 0.8,0.8 0.8,1.96 0,1.16 -0.8,2 -0.8,0.8 -2,0.8 -1.16,0 -1.96,-0.8 -0.8,-0.84 -0.8,-2 0,-1.16 0.8,-1.96 0.8,-0.8 1.96,-0.8 z"
         id="path56666"
         style="fill:#c6c6c6;fill-opacity:1;stroke:#c6c6c6;stroke-width:1.75748;stroke-linecap:round;stroke-linejoin:round;stroke-miterlimit:4;stroke-dasharray:none;stroke-opacity:1" />
    </g>
  </g>
</svg>
